<svg xmlns="http://www.w3.org/2000/svg" viewBox="60 20 240 280">
  <defs>
    <linearGradient id="grad-bar" x1="0%" y1="0%" x2="60%" y2="100%">
      <stop offset="0%" stop-color="#e8c87a"/>
      <stop offset="28%" stop-color="#c8a96e"/>
      <stop offset="65%" stop-color="#a8823f"/>
      <stop offset="100%" stop-color="#6e5020"/>
    </linearGradient>
    <linearGradient id="grad-arms" x1="15%" y1="0%" x2="85%" y2="100%">
      <stop offset="0%" stop-color="#dbbf72"/>
      <stop offset="35%" stop-color="#c8a96e"/>
      <stop offset="70%" stop-color="#9a7635"/>
      <stop offset="100%" stop-color="#5c3e10"/>
    </linearGradient>
  </defs>
  <path fill="url(#grad-bar)" d="M94,40.8c0,39-1.44,144.15.34,183.21,1.47,32.51,26.31,53.87,59.27,54.09,0-41.32,2-148.68-.56-189.85-1.83-30-28.92-49.74-59-47.45"/>
  <path fill="url(#grad-arms)" d="M273.47,278.32c21.81-20.92,25.19-54.25,4-75.65-14.86-15-30.56-29.25-46.48-43.24,2.95-2.58,5.89-5.16,8.82-7.77,12.91-11.5,25.6-23.23,37.73-35.51a50.79,50.79,0,0,0,4.31-4.94c16.25-21.33,11.85-51.34-8.33-70.71-11.15,10-22.45,19.79-33.72,29.67C224.58,83.53,209.38,97,194.7,111q-4.19,4-8.31,8c-.25.24-.48.49-.72.73l-.14-.12c-.77.87-1.5,1.76-2.22,2.65-9.2,10.36-13.85,22.46-14.17,34.81-.91,14.69,4.22,29.31,15.77,41.35.24.28.46.56.7.83l.06,0c.21.22.42.44.64.65,27.91,27.38,58.06,52.48,87.16,78.49"/>
</svg>
